<?xml version="1.0" standalone="no"?>
<!DOCTYPE svg PUBLIC "-//W3C//DTD SVG 20010904//EN"
 "http://www.w3.org/TR/2001/REC-SVG-20010904/DTD/svg10.dtd">
<svg version="1.0" xmlns="http://www.w3.org/2000/svg"
 width="512.000000pt" height="512.000000pt" viewBox="0 0 512.000000 512.000000"
 preserveAspectRatio="xMidYMid meet">

<g transform="translate(0.000000,512.000000) scale(0.100000,-0.100000)"
fill="#000000" stroke="none">
<path d="M1825 4363 c-22 -9 -90 -19 -155 -23 -63 -4 -134 -15 -158 -23 -139
-52 -277 -155 -341 -255 -41 -64 -79 -168 -88 -243 l-8 -61 -61 -19 c-121 -37
-246 -140 -314 -258 -19 -33 -38 -61 -43 -61 -4 0 -26 12 -48 26 -38 24 -158
74 -178 74 -10 0 -77 -143 -121 -256 -216 -561 -188 -1216 76 -1754 l62 -125
1 238 c2 527 49 689 271 922 42 44 82 95 89 113 15 35 21 38 39 20 9 -9 25 -1
69 34 83 65 246 170 347 224 58 31 86 51 86 63 0 10 5 64 10 122 6 57 14 166
18 242 l7 137 -68 0 c-83 0 -130 19 -157 62 -37 62 -15 137 52 178 70 43 145
14 189 -71 23 -45 48 -50 107 -20 69 36 122 113 122 178 0 28 0 28 58 25 51
-3 63 0 107 30 35 24 58 51 84 98 35 63 36 69 36 167 0 117 -3 114 86 66 93
-50 180 -157 218 -270 55 -163 26 -445 -66 -640 -35 -73 -108 -148 -159 -162
-92 -26 -251 -3 -358 51 -69 35 -155 116 -186 177 -27 53 -34 48 -20 -14 37
-164 187 -314 341 -340 l39 -7 0 -59 0 -59 43 -21 c55 -29 235 -149 315 -211
62 -48 65 -49 95 -37 74 31 127 67 198 138 85 85 138 172 177 289 23 68 26 93
26 222 0 138 -1 149 -32 240 -39 113 -86 201 -154 292 l-51 67 -1 103 c-1 90
-4 110 -28 160 -73 156 -240 249 -448 248 -53 -1 -100 -7 -125 -17z"/>
<path d="M1771 3787 c-14 -6 -27 -18 -29 -26 -4 -11 1 -10 19 2 13 10 31 17
41 17 10 0 18 5 18 10 0 13 -20 12 -49 -3z"/>
<path d="M2130 3790 c0 -5 10 -10 23 -10 13 0 28 -5 35 -12 7 -7 12 -8 12 -2
0 17 -23 34 -47 34 -13 0 -23 -4 -23 -10z"/>
<path d="M2037 3707 c-7 -18 8 -192 19 -208 9 -15 -27 -23 -47 -10 -11 6 -19
7 -19 2 0 -16 29 -33 52 -29 21 3 23 8 21 53 -4 104 -18 210 -26 192z"/>
<path d="M1761 3691 c-6 -11 -11 -26 -11 -34 0 -21 36 -49 57 -45 23 4 41 53
27 76 -16 25 -60 27 -73 3z"/>
<path d="M2114 3686 c-8 -34 -2 -57 19 -70 37 -23 77 43 46 80 -19 23 -58 18
-65 -10z"/>
<path d="M1220 3630 c0 -5 18 -10 39 -10 28 0 49 -8 70 -26 17 -14 31 -22 31
-17 -1 29 -56 63 -102 63 -21 0 -38 -4 -38 -10z"/>
<path d="M1930 3440 c0 -5 9 -19 21 -31 23 -23 79 -23 87 -1 3 11 0 12 -18 2
-17 -9 -26 -8 -46 5 -13 8 -24 20 -24 25 0 6 -4 10 -10 10 -5 0 -10 -4 -10
-10z"/>
<path d="M2894 2885 c-3 -8 -4 -20 -2 -27 3 -7 7 -1 10 15 6 29 1 36 -8 12z"/>
<path d="M2941 2860 c14 -31 19 -36 19 -24 0 6 -7 19 -16 30 -14 18 -14 18 -3
-6z"/>
<path d="M2998 2783 c6 -2 18 -2 25 0 6 3 1 5 -13 5 -14 0 -19 -2 -12 -5z"/>
<path d="M3081 2764 c0 -18 6 -47 15 -65 9 -22 13 -25 9 -9 -4 14 -10 43 -15
65 -7 37 -8 38 -9 9z"/>
<path d="M2873 2761 c-7 -11 -30 -21 -58 -25 -44 -7 -46 -9 -41 -34 3 -15 8
-57 11 -93 l6 -66 47 5 c26 2 48 5 48 6 1 0 -4 43 -10 93 -11 80 -10 95 3 108
8 8 13 17 10 19 -3 3 -10 -3 -16 -13z"/>
<path d="M4295 2633 c-74 -25 -148 -103 -171 -179 -10 -32 -19 -60 -19 -62 -1
-1 -269 -27 -595 -57 -326 -30 -594 -56 -597 -58 -3 -4 -113 -726 -113 -746 0
-5 14 -14 30 -21 45 -18 45 -29 2 -23 l-38 5 -17 -93 c-9 -52 -38 -242 -64
-422 -46 -316 -48 -328 -68 -321 -22 9 -151 8 -202 -1 -31 -6 -32 -5 -38 37
-3 24 -5 128 -3 232 l3 189 45 23 c25 13 71 31 103 40 60 19 79 40 25 29 -18
-4 -68 -22 -111 -41 l-79 -33 7 40 c8 49 -4 219 -16 219 -4 0 -5 -61 -2 -135
l6 -135 -560 0 -560 0 -7 108 c-7 112 -18 174 -28 157 -3 -6 -2 -41 3 -80 18
-155 15 -175 -43 -259 -28 -42 -48 -79 -44 -83 4 -4 11 -1 16 7 5 8 26 40 47
70 l39 55 567 3 567 2 0 -112 c0 -62 3 -176 7 -254 l6 -140 -219 -32 c-237
-35 -520 -67 -678 -78 -63 -4 -94 -9 -84 -15 8 -4 64 -4 124 0 108 8 109 8
130 -16 22 -26 99 -46 751 -197 l203 -47 982 161 983 161 26 30 c14 16 31 40
38 52 11 20 334 1848 327 1854 -1 1 -72 -4 -157 -12 -85 -8 -155 -15 -156 -15
-1 0 -11 20 -21 43 -56 127 -214 195 -347 150z m-244 -1020 c38 -20 63 -42 86
-75 125 -189 -56 -412 -281 -346 -54 16 -131 93 -145 144 -24 85 -9 160 44
221 74 87 191 109 296 56z"/>
<path d="M3070 2560 c-9 -6 -10 -10 -3 -10 6 0 15 5 18 10 8 12 4 12 -15 0z"/>
<path d="M720 2277 c0 -3 32 -23 70 -43 81 -42 191 -140 241 -213 32 -47 49
-62 49 -42 0 4 -22 37 -49 73 -55 72 -129 139 -206 186 -48 29 -105 50 -105
39z"/>
<path d="M2170 2214 c0 -11 71 -238 76 -243 2 -2 7 -2 10 1 7 8 -64 236 -76
243 -6 4 -10 3 -10 -1z"/>
<path d="M1270 1815 l0 -25 570 0 570 0 0 25 0 25 -570 0 -570 0 0 -25z"/>
<path d="M1270 1710 c0 -20 7 -20 570 -20 563 0 570 0 570 20 0 20 -7 20 -570
20 -563 0 -570 0 -570 -20z"/>
<path d="M1270 1605 l0 -25 400 0 400 0 0 25 0 25 -400 0 -400 0 0 -25z"/>
</g>
</svg>
