<?xml version="1.0" standalone="no"?>
<!DOCTYPE svg PUBLIC "-//W3C//DTD SVG 20010904//EN"
 "http://www.w3.org/TR/2001/REC-SVG-20010904/DTD/svg10.dtd">
<svg version="1.0" xmlns="http://www.w3.org/2000/svg"
 width="512.000000pt" height="512.000000pt" viewBox="0 0 512.000000 512.000000"
 preserveAspectRatio="xMidYMid meet">

<g transform="translate(0.000000,512.000000) scale(0.100000,-0.100000)"
fill="#000000" stroke="none">
<path d="M2565 3709 c-249 -26 -468 -210 -564 -473 -34 -95 -57 -210 -66 -337
-9 -117 -22 -135 -135 -195 -150 -79 -229 -179 -271 -342 -53 -209 6 -496 123
-596 l41 -36 30 52 c16 28 45 110 64 182 21 81 41 137 52 146 10 9 61 31 114
49 l97 33 68 -21 c68 -20 110 -50 98 -70 -8 -13 -72 -31 -111 -31 -16 0 -48
-9 -70 -19 l-40 -18 45 -13 c25 -6 57 -18 73 -26 16 -9 27 -10 27 -4 0 6 37
10 95 10 88 0 95 1 95 20 0 14 -7 20 -23 20 -24 0 -24 1 -30 152 -4 83 -7 184
-7 225 0 73 -10 91 -30 53 -27 -51 -110 -27 -110 33 0 25 -6 36 -28 49 -49 29
-110 104 -122 148 -16 61 3 160 31 160 30 0 126 -60 165 -103 24 -27 44 -53
44 -58 0 -4 -19 1 -42 11 -24 11 -61 19 -83 19 -39 -1 -39 -2 10 -9 81 -12
124 -40 153 -99 l12 -26 -6 30 c-15 79 -104 182 -191 222 -63 29 -59 48 10 48
56 0 97 -30 127 -94 13 -28 26 -51 30 -51 7 0 100 219 136 320 13 36 24 88 24
117 l0 51 50 11 c107 23 207 97 249 185 27 55 44 147 37 200 -5 33 -4 36 4 18
48 -113 178 -201 332 -226 35 -6 36 -8 43 -59 17 -126 80 -266 162 -357 l46
-51 -7 -112 c-16 -271 -41 -408 -95 -522 -29 -63 -119 -170 -151 -180 -17 -5
-19 -20 -22 -170 -2 -90 -7 -167 -11 -172 -5 -4 -124 -9 -265 -10 -322 -3
-435 -11 -428 -30 10 -24 -23 -26 -82 -5 -49 18 -72 20 -159 15 l-102 -6 -11
-30 c-5 -16 -10 -31 -10 -32 0 -1 32 -5 71 -7 49 -4 79 -12 97 -25 56 -42 213
-273 228 -335 6 -26 4 -28 -22 -28 -16 0 -53 14 -82 30 -42 23 -52 26 -47 12
4 -9 10 -36 12 -59 5 -37 3 -43 -13 -43 -10 0 -51 33 -90 74 l-71 73 -69 8
c-56 5 -67 4 -56 -6 6 -7 12 -26 12 -41 0 -52 47 -116 98 -135 23 -9 22 -10
-26 -78 -27 -39 -59 -79 -71 -89 -20 -18 -21 -27 -21 -247 l0 -227 33 -11 c96
-30 223 -56 379 -76 133 -17 532 2 613 29 7 3 8 34 4 93 -6 75 -18 120 -74
274 -37 101 -70 189 -75 194 -4 6 -8 39 -9 75 -3 81 -11 93 -11 16 l0 -58 -50
60 c-27 33 -50 63 -50 67 0 4 27 5 59 3 l60 -3 6 32 c3 18 14 38 23 45 10 7
30 42 46 78 50 118 59 125 185 146 93 15 106 20 88 29 -12 6 -34 19 -48 28
-23 15 -35 16 -92 7 -67 -10 -100 -6 -94 14 2 6 36 31 76 55 l72 45 87 -18
c104 -22 159 -43 171 -65 5 -9 5 -84 -1 -176 -9 -151 -9 -169 16 -325 14 -91
33 -228 42 -305 9 -77 18 -146 20 -153 3 -9 34 2 103 38 199 102 388 246 551
417 l100 106 -40 56 c-52 72 -143 165 -197 199 -42 26 -54 42 -32 42 25 0 303
117 410 172 335 174 573 423 669 703 11 32 18 60 15 63 -8 9 -129 -19 -234
-54 -311 -103 -599 -327 -890 -691 l-113 -142 -49 20 c-28 10 -53 19 -56 19
-3 0 65 73 153 163 88 89 187 196 221 238 249 306 379 647 358 929 -5 52 -8
104 -9 116 -1 20 -3 19 -41 -8 -354 -254 -579 -675 -701 -1313 -9 -49 -20 -93
-23 -96 -3 -4 -66 15 -140 41 l-134 47 56 37 c69 46 140 123 173 188 44 87 57
167 51 328 -6 169 -15 205 -86 328 -69 119 -79 156 -96 359 -17 192 -42 290
-99 385 -124 206 -310 316 -564 334 -42 3 -88 6 -102 8 -14 1 -56 -1 -95 -5z
m-115 -2002 c0 -2 -12 -14 -27 -28 l-28 -24 24 28 c23 25 31 32 31 24z m-73
-129 c-3 -8 -6 -5 -6 6 -1 11 2 17 5 13 3 -3 4 -12 1 -19z m0 -60 c-3 -7 -5
-2 -5 12 0 14 2 19 5 13 2 -7 2 -19 0 -25z m53 -83 c13 -14 21 -25 18 -25 -2
0 -15 11 -28 25 -13 14 -21 25 -18 25 2 0 15 -11 28 -25z m138 -52 c-10 -2
-28 -2 -40 0 -13 2 -5 4 17 4 22 1 32 -1 23 -4z"/>
<path d="M2555 3069 c-73 -42 -52 -120 28 -104 68 14 101 63 64 94 -21 17 -70
22 -92 10z"/>
<path d="M3064 3055 c-24 -24 -25 -28 -11 -48 17 -26 82 -50 114 -42 14 3 25
16 29 32 6 22 1 32 -25 55 -39 35 -74 36 -107 3z"/>
<path d="M753 2873 c-14 -68 -8 -273 11 -358 51 -226 159 -441 327 -650 35
-44 141 -159 236 -256 l172 -175 -46 -39 -46 -39 -16 24 c-33 50 -174 227
-253 318 -231 265 -524 470 -793 555 -84 27 -204 51 -211 44 -9 -9 57 -173 96
-239 181 -304 489 -520 997 -699 47 -17 97 -35 110 -40 l25 -9 -45 -50 c-52
-58 -157 -209 -157 -227 0 -27 300 -250 320 -238 6 3 10 23 10 45 0 79 66 415
115 585 13 44 22 81 20 83 -2 2 -25 -10 -51 -27 -27 -16 -50 -28 -52 -26 -2 2
-14 57 -27 122 -88 453 -210 760 -403 1018 -63 86 -208 229 -284 283 l-47 33
-8 -38z"/>
<path d="M2911 2880 c0 -14 8 -81 18 -150 10 -69 18 -126 17 -127 -1 -1 -23 4
-49 12 -26 8 -45 11 -43 6 7 -10 95 -36 101 -29 5 4 -32 284 -39 303 -3 6 -5
-1 -5 -15z"/>
<path d="M2594 2855 c-15 -23 -15 -27 0 -50 27 -40 96 -25 96 21 0 55 -66 75
-96 29z"/>
<path d="M3060 2859 c-17 -30 -4 -68 25 -75 34 -8 53 1 67 31 9 21 8 28 -7 45
-24 27 -71 26 -85 -1z"/>
<path d="M2854 2536 c22 -17 81 -22 91 -7 3 6 -8 8 -28 4 -19 -3 -45 0 -58 6
-23 12 -23 11 -5 -3z"/>
<path d="M2803 2073 c-49 -4 -53 -6 -53 -29 0 -22 3 -24 53 -24 28 0 76 3 105
6 46 6 52 9 52 30 0 26 -10 27 -157 17z"/>
<path d="M1850 1925 c-24 -25 -42 -45 -39 -45 3 0 25 20 49 45 24 25 42 45 39
45 -3 0 -25 -20 -49 -45z"/>
<path d="M1888 1713 c6 -2 18 -2 25 0 6 3 1 5 -13 5 -14 0 -19 -2 -12 -5z"/>
<path d="M2071 1536 c10 -9 69 -36 69 -32 0 6 -55 36 -66 36 -4 0 -5 -2 -3 -4z"/>
<path d="M3210 1526 c0 -2 8 -10 18 -17 15 -13 16 -12 3 4 -13 16 -21 21 -21
13z"/>
<path d="M2978 1373 c6 -2 18 -2 25 0 6 3 1 5 -13 5 -14 0 -19 -2 -12 -5z"/>
<path d="M3097 1336 c-3 -8 0 -17 7 -19 10 -4 12 1 9 14 -6 23 -9 24 -16 5z"/>
<path d="M3000 1205 c13 -14 26 -25 28 -25 3 0 -5 11 -18 25 -13 14 -26 25
-28 25 -3 0 5 -11 18 -25z"/>
<path d="M3061 1124 c0 -11 3 -14 6 -6 3 7 2 16 -1 19 -3 4 -6 -2 -5 -13z"/>
<path d="M3053 1055 c0 -22 2 -30 4 -17 2 12 2 30 0 40 -3 9 -5 -1 -4 -23z"/>
</g>
</svg>
